<svg width="43" height="33" viewBox="0 0 43 33" fill="none" xmlns="http://www.w3.org/2000/svg">
<path d="M36.1594 2.74907C36.1449 2.72731 36.1304 2.70555 36.1014 2.6983C33.3378 1.42894 30.4147 0.52225 27.419 0.00725337C27.39 -1.10787e-07 27.361 0.00725326 27.3392 0.0145067C27.3174 0.0217602 27.2957 0.0435209 27.2812 0.0725348C26.8822 0.790629 26.5195 1.53774 26.2004 2.2921C22.9653 1.79886 19.6795 1.79886 16.4517 2.2921C16.1253 1.53048 15.7626 0.790629 15.3564 0.0725348C15.3419 0.0507744 15.3202 0.0290137 15.2984 0.0145067C15.2767 -2.21575e-07 15.2476 0 15.2186 0C12.2229 0.514997 9.29979 1.42168 6.53621 2.69104C6.51445 2.69829 6.49269 2.72005 6.47818 2.74182C0.95103 10.9963 -0.564947 19.0549 0.174908 27.0047C0.174908 27.0265 0.182161 27.041 0.189415 27.0627C0.196668 27.0845 0.211175 27.0918 0.225682 27.1063C3.44623 29.4927 7.04395 31.3133 10.8738 32.4883C10.9028 32.4956 10.9318 32.4956 10.9536 32.4883C10.9753 32.4811 11.0044 32.4593 11.0189 32.4376C11.8385 31.3205 12.5711 30.131 13.1949 28.8979C13.2022 28.8834 13.2094 28.8616 13.2094 28.8398C13.2094 28.8181 13.2094 28.8036 13.2022 28.7818C13.1949 28.7601 13.1877 28.7455 13.1731 28.7383C13.1586 28.731 13.1441 28.7165 13.1224 28.7093C11.9763 28.2668 10.8593 27.7373 9.79302 27.1208C9.77126 27.1063 9.75676 27.0918 9.74225 27.0772C9.72774 27.0627 9.72049 27.0337 9.72049 27.012C9.72049 26.9902 9.72049 26.9684 9.735 26.9467C9.7495 26.9249 9.75676 26.9104 9.77852 26.8959C10.0034 26.7291 10.2282 26.555 10.4386 26.3809C10.4603 26.3664 10.4821 26.3519 10.5039 26.3519C10.5256 26.3519 10.5546 26.3519 10.5764 26.3591C17.5542 29.5434 25.1124 29.5434 32.0104 26.3591C32.0322 26.3519 32.0612 26.3446 32.083 26.3446C32.1047 26.3446 32.1337 26.3591 32.1483 26.3737C32.3586 26.5477 32.5835 26.7291 32.8083 26.8959C32.8228 26.9104 32.8373 26.9249 32.8518 26.9467C32.8663 26.9684 32.8663 26.9902 32.8663 27.012C32.8663 27.0337 32.8591 27.0555 32.8446 27.0772C32.8301 27.099 32.8156 27.1135 32.8011 27.1208C31.7348 27.7446 30.625 28.2741 29.4717 28.702C29.4572 28.7093 29.4354 28.7165 29.4209 28.731C29.4064 28.7455 29.3992 28.7601 29.3919 28.7818C29.3847 28.8036 29.3847 28.8181 29.3847 28.8398C29.3847 28.8616 29.3919 28.8761 29.3992 28.8979C30.0375 30.131 30.7628 31.3133 31.5752 32.4376C31.5897 32.4593 31.6187 32.4811 31.6405 32.4883C31.6623 32.4956 31.6985 32.4956 31.7203 32.4883C35.5574 31.3133 39.1624 29.4927 42.3902 27.1063C42.4047 27.0918 42.4192 27.0772 42.4264 27.0627C42.4337 27.0482 42.4409 27.0265 42.4409 27.0047C43.3331 17.8073 40.954 9.82121 36.1377 2.74182L36.1594 2.74907ZM14.2539 22.1666C12.1504 22.1666 10.4241 20.2372 10.4241 17.8726C10.4241 15.5079 12.1214 13.5785 14.2539 13.5785C16.4082 13.5785 18.12 15.5224 18.0838 17.8726C18.0838 20.2445 16.3864 22.1666 14.2539 22.1666ZM28.4272 22.1666C26.3237 22.1666 24.5974 20.2372 24.5974 17.8726C24.5974 15.5079 26.2947 13.5785 28.4272 13.5785C30.5815 13.5785 32.2933 15.5224 32.2571 17.8726C32.2571 20.2445 30.5742 22.1666 28.4272 22.1666Z" fill="#F6F4F1"/>
</svg>
