<svg width="38" height="37" viewBox="0 0 38 37" fill="none" xmlns="http://www.w3.org/2000/svg">
<path d="M37.1378 18.5689C37.1378 8.31249 28.8253 0 18.5689 0C8.31249 0 0 8.31249 0 18.5689C0 27.2731 5.99863 34.5846 14.0863 36.5938V24.2411H10.2564V18.5689H14.0863V16.1245C14.0863 9.8067 16.9441 6.8763 23.1531 6.8763C24.3282 6.8763 26.3591 7.10841 27.1933 7.34052V12.476C26.7581 12.4325 25.9965 12.4035 25.0463 12.4035C21.9998 12.4035 20.8247 13.5568 20.8247 16.5524V18.5689H26.8887L25.8442 24.2411H20.8175V37C30.0149 35.8902 37.1378 28.0637 37.1378 18.5689Z" fill="#F6F4F1"/>
</svg>
