<svg width="33" height="33" viewBox="0 0 33 33" fill="none" xmlns="http://www.w3.org/2000/svg">
<path d="M30.1745 0H2.31386C1.03725 0 0 1.05175 0 2.34287V30.1527C0 31.4438 1.03725 32.4956 2.31386 32.4956H30.1745C31.4511 32.4956 32.4956 31.4438 32.4956 30.1527V2.34287C32.4956 1.05175 31.4511 0 30.1745 0ZM9.82121 27.8534H5.0049V12.3454H9.82847V27.8534H9.82121ZM7.41306 4.64223C8.95805 4.64223 10.2056 5.88983 10.2056 7.43482C10.2056 8.97981 8.95805 10.2274 7.41306 10.2274C5.86807 10.2274 4.62047 8.97981 4.62047 7.43482C4.62047 5.88983 5.86807 4.64223 7.41306 4.64223ZM27.8751 27.8534H23.0588V20.3097C23.0588 18.5109 23.0225 16.197 20.5564 16.197C18.0467 16.197 17.6622 18.1555 17.6622 20.1792V27.8534H12.8459V12.3454H17.4664V14.4634H17.5317C18.1772 13.2449 19.7512 11.961 22.0941 11.961C26.9684 11.961 27.8751 15.1743 27.8751 19.3523V27.8534Z" fill="#F6F4F1"/>
</svg>
