<svg width="33" height="33" viewBox="0 0 33 33" fill="none" xmlns="http://www.w3.org/2000/svg">
<path d="M4.64223 0C2.08175 0 0 2.08175 0 4.64223V27.8534C0 30.4138 2.08175 32.4956 4.64223 32.4956H27.8534C30.4138 32.4956 32.4956 30.4138 32.4956 27.8534V4.64223C32.4956 2.08175 30.4138 0 27.8534 0H4.64223ZM16.2478 15.624C17.2995 13.448 20.1647 9.40051 22.8267 7.4058C24.7489 5.96236 27.8534 4.85258 27.8534 8.39953C27.8534 9.11037 27.4472 14.3546 27.2078 15.2033C26.3809 18.1627 23.3635 18.9171 20.6797 18.4601C25.3727 19.258 26.5695 21.9055 23.9873 24.553C19.0912 29.5797 16.9514 23.2909 16.4001 21.6807L16.3784 21.6154C16.3131 21.4268 16.2768 21.318 16.2478 21.318C16.2188 21.318 16.1825 21.4268 16.1172 21.6154C16.11 21.6371 16.1027 21.6589 16.0955 21.6807C15.5442 23.2909 13.4044 29.5724 8.50833 24.553C5.93335 21.9055 7.12292 19.258 11.8159 18.4601C9.13213 18.9171 6.11468 18.1627 5.28779 15.2033C5.04842 14.3546 4.64223 9.11037 4.64223 8.39953C4.64223 4.85258 7.75397 5.96962 9.66889 7.4058C12.3309 9.40051 15.196 13.4552 16.2478 15.624Z" fill="#F6F4F1"/>
</svg>
