<svg width="33" height="33" viewBox="0 0 33 33" fill="none" xmlns="http://www.w3.org/2000/svg">
<path d="M14.1008 13.0345C12.9112 13.7816 12.2221 15.1235 12.2946 16.5234C12.3744 17.9306 13.2158 19.1782 14.4779 19.7947C15.7473 20.404 17.2488 20.2735 18.3948 19.4611C19.5844 18.714 20.2735 17.3721 20.2009 15.9722C20.1212 14.565 19.2797 13.3174 18.0176 12.7008C16.7483 12.0916 15.2468 12.2221 14.1008 13.0345ZM24.4225 8.07312C24.0453 7.69594 23.5883 7.39855 23.0878 7.20271C21.7749 6.68771 18.9098 6.70947 17.0602 6.73123C16.7628 6.73123 16.4872 6.73848 16.2478 6.73848C16.0084 6.73848 15.7255 6.73848 15.4209 6.73123C13.5713 6.70947 10.7206 6.68046 9.40776 7.20271C8.90727 7.39855 8.45756 7.69594 8.07312 8.07312C7.68869 8.45031 7.39855 8.90727 7.20271 9.40776C6.68771 10.7206 6.71672 13.593 6.73123 15.4427C6.73123 15.7401 6.73848 16.0157 6.73848 16.2478C6.73848 16.4799 6.73848 16.7555 6.73123 17.0529C6.71672 18.9026 6.68771 21.7749 7.20271 23.0878C7.39855 23.5883 7.69594 24.038 8.07312 24.4225C8.4503 24.8069 8.90727 25.097 9.40776 25.2929C10.7206 25.8079 13.5858 25.7861 15.4354 25.7644C15.7328 25.7644 16.0084 25.7571 16.2478 25.7571C16.4872 25.7571 16.77 25.7571 17.0747 25.7644C18.9243 25.7861 21.7749 25.8151 23.0878 25.2929C23.5883 25.097 24.038 24.7997 24.4225 24.4225C24.8069 24.0453 25.097 23.5883 25.2929 23.0878C25.8151 21.7822 25.7861 18.9243 25.7644 17.0674C25.7644 16.7628 25.7571 16.4799 25.7571 16.2405C25.7571 16.0012 25.7571 15.7255 25.7644 15.4136C25.7861 13.564 25.8151 10.7061 25.2929 9.39326C25.097 8.89277 24.7996 8.44305 24.4225 8.05862V8.07312ZM19.5554 11.3009C20.8683 12.1786 21.7749 13.5422 22.0868 15.0872C22.3987 16.6322 22.0723 18.2425 21.1947 19.5554C20.7595 20.2082 20.2009 20.7595 19.5554 21.1947C18.9098 21.6299 18.1772 21.9273 17.4084 22.0796C15.8634 22.3842 14.2531 22.0651 12.9402 21.1874C11.6273 20.3097 10.7206 18.9461 10.4087 17.4011C10.0968 15.8561 10.4233 14.2458 11.2937 12.933C12.1641 11.6201 13.535 10.7134 15.08 10.4015C16.625 10.0896 18.2352 10.416 19.5481 11.2864H19.5554V11.3009ZM21.6734 11.2066C21.4485 11.0543 21.2672 10.8367 21.1584 10.5828C21.0496 10.329 21.0278 10.0533 21.0786 9.77769C21.1294 9.50206 21.2672 9.26269 21.4558 9.06685C21.6444 8.87101 21.8983 8.74044 22.1666 8.68967C22.435 8.6389 22.7179 8.66066 22.9718 8.76946C23.2256 8.87826 23.4432 9.05234 23.5956 9.2772C23.7479 9.50206 23.8277 9.77044 23.8277 10.0461C23.8277 10.2274 23.7914 10.4087 23.7261 10.5756C23.6609 10.7424 23.552 10.8947 23.4287 11.0253C23.3054 11.1559 23.1459 11.2574 22.979 11.3299C22.8122 11.4025 22.6309 11.4387 22.4495 11.4387C22.1739 11.4387 21.9055 11.359 21.6807 11.2066H21.6734ZM32.4956 4.64223C32.4956 2.08175 30.4138 0 27.8534 0H4.64223C2.08175 0 0 2.08175 0 4.64223V27.8534C0 30.4138 2.08175 32.4956 4.64223 32.4956H27.8534C30.4138 32.4956 32.4956 30.4138 32.4956 27.8534V4.64223ZM25.8949 25.8949C24.5385 27.2513 22.892 27.6793 21.0351 27.7736C19.1202 27.8824 13.3754 27.8824 11.4605 27.7736C9.60361 27.6793 7.95707 27.2513 6.60067 25.8949C5.24427 24.5385 4.81631 22.892 4.72927 21.0351C4.62047 19.1202 4.62047 13.3754 4.72927 11.4605C4.82356 9.60361 5.24427 7.95707 6.60067 6.60067C7.95707 5.24427 9.61086 4.81631 11.4605 4.72927C13.3754 4.62047 19.1202 4.62047 21.0351 4.72927C22.892 4.82356 24.5385 5.24427 25.8949 6.60067C27.2513 7.95707 27.6793 9.60361 27.7663 11.4605C27.8751 13.3682 27.8751 19.1057 27.7663 21.0278C27.672 22.8847 27.2513 24.5313 25.8949 25.8877V25.8949Z" fill="#F6F4F1"/>
</svg>
