<svg width="157" height="44" viewBox="0 0 157 44" fill="none" xmlns="http://www.w3.org/2000/svg">
<mask id="mask0_86_103" style="mask-type:luminance" maskUnits="userSpaceOnUse" x="0" y="0" width="157" height="44">
<path d="M0 0H157V43.2387H0V0Z" fill="white"/>
</mask>
<g mask="url(#mask0_86_103)">
<path d="M0 0H157.08V43.2387H0V0Z" fill="black"/>
</g>
<mask id="mask1_86_103" style="mask-type:luminance" maskUnits="userSpaceOnUse" x="0" y="0" width="157" height="44">
<path d="M0 0H156.995V43.1966H0V0Z" fill="white"/>
</mask>
<g mask="url(#mask1_86_103)">
<path d="M0 0H156.995V43.2388H0V0Z" stroke="white" stroke-width="6"/>
</g>
<mask id="mask2_86_103" style="mask-type:luminance" maskUnits="userSpaceOnUse" x="4" y="4" width="75" height="36">
<path d="M4.24219 4.06348H78.5003V39.1747H4.24219V4.06348Z" fill="white"/>
</mask>
<g mask="url(#mask2_86_103)">
<path d="M4.24219 4.06348H78.4441V39.1747H4.24219V4.06348Z" fill="white"/>
</g>
<path d="M19.4639 27.0898H20.9544V21.784H22.6324C23.0917 21.784 23.4948 21.7465 23.8698 21.6808L26.9164 27.0898H28.6413L25.2478 21.1371C25.9227 20.7059 26.3914 20.031 26.7289 19.131L28.1819 15.2876H26.6164L25.3978 18.5405C24.9291 19.8247 24.2354 20.3684 22.6324 20.3684H20.9544V15.2876H19.4639V27.0898Z" fill="black"/>
<path d="M32.2666 27.0898H33.7571V15.2876H32.2666V27.0898Z" fill="black"/>
<path d="M38.4658 27.0898H39.9376V17.8561L46.4621 27.0898H47.8401V15.2876H46.3871V24.5306L39.872 15.2876H38.4658V27.0898Z" fill="black"/>
<path d="M57.9122 27.3057C61.5025 27.3057 64.0336 24.784 64.0336 21.1937C64.0336 17.6033 61.5025 15.0723 57.9122 15.0723C54.3219 15.0723 51.8096 17.6033 51.8096 21.1937C51.8096 24.784 54.3219 27.3057 57.9122 27.3057ZM53.3282 21.1937C53.3282 18.447 55.2031 16.5534 57.9122 16.5534C60.6307 16.5534 62.4962 18.447 62.4962 21.1937C62.4962 23.9403 60.6307 25.8245 57.9122 25.8245C55.2031 25.8245 53.3282 23.9403 53.3282 21.1937Z" fill="black"/>
<path d="M93.0198 27.4334C97.0789 27.4334 99.6193 24.4805 99.2537 20.3371H92.4292V22.7275H95.6821C95.3446 23.7212 94.3978 24.3961 93.0479 24.3961C91.1637 24.3961 90.0669 23.065 90.0669 21.2839C90.0669 19.4278 91.2668 18.1623 93.0198 18.1623C94.0604 18.1623 94.9509 18.6216 95.4102 19.3622H99.0287C98.3444 16.7842 95.9446 15.125 92.9636 15.125C89.2607 15.125 86.7109 17.656 86.7109 21.2839C86.7109 24.9211 89.2701 27.4334 93.0198 27.4334Z" fill="white"/>
<path d="M99.9062 27.1806H103.515L104.153 25.512H108.184L108.821 27.1806H112.449L107.865 15.3784H104.49L99.9062 27.1806ZM104.865 23.0184L106.178 19.3625L107.49 23.0184H104.865Z" fill="white"/>
<path d="M113.772 27.1806H117.147V21.1998L119.416 24.3871H121.628L123.887 21.2186V27.1806H127.253V15.3784H124.497L120.513 20.9936L116.557 15.3784H113.772V27.1806Z" fill="white"/>
<path d="M129.746 27.1806H138.024V24.3965H133.121V22.5778H137.386V19.8499H133.121V18.1251H137.836V15.3784H129.746V27.1806Z" fill="white"/>
<path d="M144.252 27.4334C147.186 27.4334 148.921 26.0554 148.921 23.7212C148.921 21.7713 147.664 20.6277 144.796 19.9809C143.277 19.6434 142.724 19.2778 142.724 18.6685C142.724 18.0966 143.23 17.7404 144.018 17.7404C144.965 17.7404 145.499 18.2279 145.499 19.1278H148.705C148.705 16.6999 146.849 15.125 143.952 15.125C141.168 15.125 139.453 16.5124 139.453 18.7341C139.453 20.7214 140.746 21.9588 143.408 22.465C144.843 22.7463 145.536 23.1869 145.536 23.8618C145.536 24.4524 145.03 24.7899 144.205 24.7899C143.23 24.7899 142.659 24.2649 142.659 23.3556H139.368C139.368 25.896 141.187 27.4334 144.252 27.4334Z" fill="white"/>
</svg>
